HIERARCHY
ROOT Root
{
  OFFSET 0.0 0.0 0.0
  CHANNELS 6 Xposition Yposition Zposition Zrotation Yrotation Xrotation
  JOINT Hips
  {
    OFFSET 0.0 100.0 0.0
    CHANNELS 6 Xposition Yposition Zposition Zrotation Yrotation Xrotation
    JOINT Spine1
    {
      OFFSET 5.003913 -0.037094 -0.013727
      CHANNELS 3 Zrotation Yrotation Xrotation
      JOINT Spine2
      {
        OFFSET 7.125363 -1e-06 0.0
        CHANNELS 3 Zrotation Yrotation Xrotation
        JOINT Chest
        {
          OFFSET 7.594027 1e-06 0.0
          CHANNELS 3 Zrotation Yrotation Xrotation
          JOINT Neck1
          {
            OFFSET 26.313086 -0.460272 -0.181672
            CHANNELS 3 Zrotation Yrotation Xrotation
            JOINT Neck2
            {
              OFFSET 8.045911 0.0 0.0
              CHANNELS 3 Zrotation Yrotation Xrotation
              JOINT Head
              {
                OFFSET 6.432774 0.0 0.0
                CHANNELS 3 Zrotation Yrotation Xrotation
                JOINT HeadEnd
                {
                  OFFSET 16.169773 0.06451 0.00362
                  CHANNELS 3 Zrotation Yrotation Xrotation
                }
                JOINT Jaw
                {
                  OFFSET 0.108741 3.12938 0.002639
                  CHANNELS 3 Zrotation Yrotation Xrotation
                }
                JOINT LeftEye
                {
                  OFFSET 4.45173 8.166359 3.206392
                  CHANNELS 3 Zrotation Yrotation Xrotation
                }
                JOINT RightEye
                {
                  OFFSET 4.436895 8.135758 -3.222429
                  CHANNELS 3 Zrotation Yrotation Xrotation
                }
              }
            }
          }
          JOINT LeftShoulder
          {
            OFFSET 23.218927 5.195579 1.621656
            CHANNELS 3 Zrotation Yrotation Xrotation
            JOINT LeftArm
            {
              OFFSET 15.902118 2e-06 -2e-06
              CHANNELS 3 Zrotation Yrotation Xrotation
              JOINT LeftForeArm
              {
                OFFSET 28.739307 0.0 -1e-06
                CHANNELS 3 Zrotation Yrotation Xrotation
                JOINT LeftHand
                {
                  OFFSET 27.093981 -4e-06 0.0
                  CHANNELS 3 Zrotation Yrotation Xrotation
                  JOINT LeftHandThumb1
                  {
                    OFFSET 2.276781 3.380274 0.83384
                    CHANNELS 3 Zrotation Yrotation Xrotation
                    JOINT LeftHandThumb2
                    {
                      OFFSET 4.705309 -1e-06 -1e-06
                      CHANNELS 3 Zrotation Yrotation Xrotation
                      JOINT LeftHandThumb3
                      {
                        OFFSET 2.798515 0.0 3e-06
                        CHANNELS 3 Zrotation Yrotation Xrotation
                        JOINT LeftHandThumbEnd
                        {
                          OFFSET 3.180793 4e-06 -4e-06
                          CHANNELS 3 Zrotation Yrotation Xrotation
                        }
                      }
                    }
                  }
                  JOINT LeftHandIndex1
                  {
                    OFFSET 3.247786 2.352677 0.137192
                    CHANNELS 3 Zrotation Yrotation Xrotation
                    JOINT LeftHandIndex2
                    {
                      OFFSET 6.367095 1e-06 0.0
                      CHANNELS 3 Zrotation Yrotation Xrotation
                      JOINT LeftHandIndex3
                      {
                        OFFSET 3.662364 0.0 0.0
                        CHANNELS 3 Zrotation Yrotation Xrotation
                        JOINT LeftHandIndex4
                        {
                          OFFSET 2.329242 4e-06 -4e-06
                          CHANNELS 3 Zrotation Yrotation Xrotation
                          JOINT LeftHandIndexEnd
                          {
                            OFFSET 2.767823 1e-06 0.0
                            CHANNELS 3 Zrotation Yrotation Xrotation
                          }
                        }
                      }
                    }
                  }
                  JOINT LeftHandMiddle1
                  {
                    OFFSET 3.163612 0.945023 -0.406112
                    CHANNELS 3 Zrotation Yrotation Xrotation
                    JOINT LeftHandMiddle2
                    {
                      OFFSET 6.276789 3e-06 0.0
                      CHANNELS 3 Zrotation Yrotation Xrotation
                      JOINT LeftHandMiddle3
                      {
                        OFFSET 4.35652 -1e-06 4e-06
                        CHANNELS 3 Zrotation Yrotation Xrotation
                        JOINT LeftHandMiddle4
                        {
                          OFFSET 2.996877 0.0 8e-06
                          CHANNELS 3 Zrotation Yrotation Xrotation
                          JOINT LeftHandMiddleEnd
                          {
                            OFFSET 2.323256 3e-06 -4e-06
                            CHANNELS 3 Zrotation Yrotation Xrotation
                          }
                        }
                      }
                    }
                  }
                  JOINT LeftHandRing1
                  {
                    OFFSET 2.882606 -0.309162 0.107445
                    CHANNELS 3 Zrotation Yrotation Xrotation
                    JOINT LeftHandRing2
                    {
                      OFFSET 6.033198 0.0 4e-06
                      CHANNELS 3 Zrotation Yrotation Xrotation
                      JOINT LeftHandRing3
                      {
                        OFFSET 4.350578 3e-06 0.0
                        CHANNELS 3 Zrotation Yrotation Xrotation
                        JOINT LeftHandRing4
                        {
                          OFFSET 2.651321 2e-06 -7e-06
                          CHANNELS 3 Zrotation Yrotation Xrotation
                          JOINT LeftHandRingEnd
                          {
                            OFFSET 1.937663 1e-06 -4e-06
                            CHANNELS 3 Zrotation Yrotation Xrotation
                          }
                        }
                      }
                    }
                  }
                  JOINT LeftHandPinky1
                  {
                    OFFSET 2.865315 -1.525436 0.575687
                    CHANNELS 3 Zrotation Yrotation Xrotation
                    JOINT LeftHandPinky2
                    {
                      OFFSET 5.54936 1e-06 -8e-06
                      CHANNELS 3 Zrotation Yrotation Xrotation
                      JOINT LeftHandPinky3
                      {
                        OFFSET 3.070974 0.0 -4e-06
                        CHANNELS 3 Zrotation Yrotation Xrotation
                        JOINT LeftHandPinky4
                        {
                          OFFSET 1.549672 1e-06 0.0
                          CHANNELS 3 Zrotation Yrotation Xrotation
                          JOINT LeftHandPinkyEnd
                          {
                            OFFSET 1.952123 0.0 0.0
                            CHANNELS 3 Zrotation Yrotation Xrotation
                          }
                        }
                      }
                    }
                  }
                }
              }
            }
          }
          JOINT RightShoulder
          {
            OFFSET 23.161716 5.296122 -1.380114
            CHANNELS 3 Zrotation Yrotation Xrotation
            JOINT RightArm
            {
              OFFSET -16.027195 -2e-06 1.1e-05
              CHANNELS 3 Zrotation Yrotation Xrotation
              JOINT RightForeArm
              {
                OFFSET -28.736639 4e-06 2e-06
                CHANNELS 3 Zrotation Yrotation Xrotation
                JOINT RightHand
                {
                  OFFSET -27.133619 6e-06 0.0
                  CHANNELS 3 Zrotation Yrotation Xrotation
                  JOINT RightHandThumb1
                  {
                    OFFSET -2.274328 -3.351035 -0.83067
                    CHANNELS 3 Zrotation Yrotation Xrotation
                    JOINT RightHandThumb2
                    {
                      OFFSET -4.703594 -3e-06 2e-06
                      CHANNELS 3 Zrotation Yrotation Xrotation
                      JOINT RightHandThumb3
                      {
                        OFFSET -2.794935 -4e-06 -3e-06
                        CHANNELS 3 Zrotation Yrotation Xrotation
                        JOINT RightHandThumbEnd
                        {
                          OFFSET -3.183852 4e-06 1e-06
                          CHANNELS 3 Zrotation Yrotation Xrotation
                        }
                      }
                    }
                  }
                  JOINT RightHandIndex1
                  {
                    OFFSET -3.253496 -2.33755 -0.127667
                    CHANNELS 3 Zrotation Yrotation Xrotation
                    JOINT RightHandIndex2
                    {
                      OFFSET -6.344434 0.0 0.0
                      CHANNELS 3 Zrotation Yrotation Xrotation
                      JOINT RightHandIndex3
                      {
                        OFFSET -3.654871 0.0 -8e-06
                        CHANNELS 3 Zrotation Yrotation Xrotation
                        JOINT RightHandIndex4
                        {
                          OFFSET -2.327586 -1e-06 0.0
                          CHANNELS 3 Zrotation Yrotation Xrotation
                          JOINT RightHandIndexEnd
                          {
                            OFFSET -2.770001 3e-06 8e-06
                            CHANNELS 3 Zrotation Yrotation Xrotation
                          }
                        }
                      }
                    }
                  }
                  JOINT RightHandMiddle1
                  {
                    OFFSET -3.168223 -0.944764 0.411762
                    CHANNELS 3 Zrotation Yrotation Xrotation
                    JOINT RightHandMiddle2
                    {
                      OFFSET -6.266691 -1e-06 -4e-06
                      CHANNELS 3 Zrotation Yrotation Xrotation
                      JOINT RightHandMiddle3
                      {
                        OFFSET -4.348901 0.0 0.0
                        CHANNELS 3 Zrotation Yrotation Xrotation
                        JOINT RightHandMiddle4
                        {
                          OFFSET -3.00024 2e-06 -4e-06
                          CHANNELS 3 Zrotation Yrotation Xrotation
                          JOINT RightHandMiddleEnd
                          {
                            OFFSET -2.321477 -4e-06 -4e-06
                            CHANNELS 3 Zrotation Yrotation Xrotation
                          }
                        }
                      }
                    }
                  }
                  JOINT RightHandRing1
                  {
                    OFFSET -2.885654 0.293261 -0.119232
                    CHANNELS 3 Zrotation Yrotation Xrotation
                    JOINT RightHandRing2
                    {
                      OFFSET -6.032835 -1e-06 -4e-06
                      CHANNELS 3 Zrotation Yrotation Xrotation
                      JOINT RightHandRing3
                      {
                        OFFSET -4.33881 0.0 -4e-06
                        CHANNELS 3 Zrotation Yrotation Xrotation
                        JOINT RightHandRing4
                        {
                          OFFSET -2.654903 -4e-06 -4e-06
                          CHANNELS 3 Zrotation Yrotation Xrotation
                          JOINT RightHandRingEnd
                          {
                            OFFSET -1.935122 0.0 4e-06
                            CHANNELS 3 Zrotation Yrotation Xrotation
                          }
                        }
                      }
                    }
                  }
                  JOINT RightHandPinky1
                  {
                    OFFSET -2.866241 1.503904 -0.60527
                    CHANNELS 3 Zrotation Yrotation Xrotation
                    JOINT RightHandPinky2
                    {
                      OFFSET -5.553177 -2e-06 0.0
                      CHANNELS 3 Zrotation Yrotation Xrotation
                      JOINT RightHandPinky3
                      {
                        OFFSET -3.062664 -1e-06 -4e-06
                        CHANNELS 3 Zrotation Yrotation Xrotation
                        JOINT RightHandPinky4
                        {
                          OFFSET -1.546529 2e-06 4e-06
                          CHANNELS 3 Zrotation Yrotation Xrotation
                          JOINT RightHandPinkyEnd
                          {
                            OFFSET -1.952341 0.0 -4e-06
                            CHANNELS 3 Zrotation Yrotation Xrotation
                          }
                        }
                      }
                    }
                  }
                }
              }
            }
          }
        }
      }
    }
    JOINT LeftLeg
    {
      OFFSET -8.443107 2.567604 10.043214
      CHANNELS 3 Zrotation Yrotation Xrotation
      JOINT LeftShin
      {
        OFFSET 43.229198 1e-06 -1e-06
        CHANNELS 3 Zrotation Yrotation Xrotation
        JOINT LeftFoot
        {
          OFFSET 42.298611 1e-06 1e-06
          CHANNELS 3 Zrotation Yrotation Xrotation
          JOINT LeftToeBase
          {
            OFFSET 14.165858 1e-06 0.0
            CHANNELS 3 Zrotation Yrotation Xrotation
            JOINT LeftToeEnd
            {
              OFFSET 6.7141 -0.234461 0.0
              CHANNELS 3 Zrotation Yrotation Xrotation
            }
          }
        }
      }
    }
    JOINT RightLeg
    {
      OFFSET -8.303923 2.592729 -10.047278
      CHANNELS 3 Zrotation Yrotation Xrotation
      JOINT RightShin
      {
        OFFSET -43.369682 0.0 1e-06
        CHANNELS 3 Zrotation Yrotation Xrotation
        JOINT RightFoot
        {
          OFFSET -42.260784 4e-06 2e-06
          CHANNELS 3 Zrotation Yrotation Xrotation
          JOINT RightToeBase
          {
            OFFSET -14.222245 -2e-06 -1e-06
            CHANNELS 3 Zrotation Yrotation Xrotation
            JOINT RightToeEnd
            {
              OFFSET -6.660062 0.232574 -2e-06
              CHANNELS 3 Zrotation Yrotation Xrotation
            }
          }
        }
      }
    }
  }
}
MOTION
Frames: 5
Frame Time: 0.03333333333333333
0.0 0.0 0.0 0.0 -0.0 0.0 2.042587 97.966476 -1.867788 84.458107 2.001499 87.041939 5.577664 2.495359 0.92962 -8.710095 -0.068727 0.833495 20.010666 1.098442 0.016468 16.360849 1.650389 2.379922 -2.551946 -0.577145 -0.126412 -45.295204 0.440583 -1.849141 5e-06 -0.0 0.0 -0.053425 -0.020823 -0.057927 -0.022692 -0.027209 -0.094233 -0.086727 -0.010713 -0.02138 -94.846581 -71.58448 114.105492 4.275616 -43.058315 30.282856 103.041313 -3.378849 1.43957 24.228029 7.721044 45.286331 17.636625 -26.322737 52.411182 -19.466654 -14.3956 29.410385 1e-06 -8.774822 -2e-06 16.565699 -18.170486 5.47068 -0.609777 -1.795653 -3.889327 -4.80709 -11.046809 -2.937849 4e-06 -20.976015 3e-06 -5.019972 -25.033554 -4.031877 5e-06 0.0 -0.0 -10.634531 -5.68697 -3.565585 10.573271 -17.922941 -3.113897 0.0 -13.821205 3e-06 -0.501782 -31.181498 -4.027011 -10.870316 -60.857662 6.845013 -13.982712 -7.150195 -2.875039 13.772727 -8.401493 -3.218242 0.347727 -34.211544 0.771663 -0.963032 -17.733366 2.62102 -2e-06 -0.0 1e-06 -17.346418 -20.095211 -4.201778 21.757557 -1.638376 3.866426 1e-06 -6.338821 2e-06 -1.697594 -22.591743 -6.194004 -1e-06 -3e-06 -2e-06 111.524399 -82.332535 77.859215 46.198532 -42.580566 -30.890566 144.004349 2.021639 0.871137 16.773571 10.786263 14.13405 22.182117 -20.375898 49.933319 -16.701807 -16.743525 28.476526 -2e-06 -12.6906 -1e-06 15.994949 -17.449039 2.02596 -0.10592 -1.513853 -4.275881 -5.039041 -5.612873 -2.953556 5e-06 -11.020523 -1e-06 -6.111297 -15.895334 -3.84047 0.0 -0.0 1e-06 -10.283369 -5.68029 -4.341837 11.028293 -11.302405 -2.372632 -1.384269 -14.238583 -6.32012 -0.625439 -26.924191 -3.827601 -4.160951 -48.617077 -4.158514 -13.708524 -7.363477 -3.720938 18.141148 -14.052739 -3.242674 5e-06 -18.787273 -1e-06 -0.429712 -8.456043 2.555504 0.0 0.0 0.0 -15.923532 -20.094482 -5.473584 30.41921 -7.190826 1.735926 2e-06 -8.162925 -1e-06 -1.861903 -22.861467 -6.167941 0.0 -4e-06 -0.0 155.530075 -16.514032 -3.46597 61.174305 0.045887 0.381305 -66.591637 9.532578 -4.497627 -15.759358 1.714171 2.053027 -0.999998 -0.0 -0.0 -5.805656 8.515333 6.127616 30.895966 0.085449 0.009295 -83.768242 -6.126441 -2.724425 -8.847972 0.954415 1.707877 -1.000002 0.0 -0.0 
0.0 0.0 0.0 0.0 -0.0 0.0 1.406539 97.678444 -2.562247 80.888916 0.913426 78.250832 6.006909 3.513052 2.183137 -8.710968 0.546818 3.531319 20.487629 2.798595 5.063423 15.36448 0.228673 2.334221 -2.826128 -0.713845 0.553284 -44.663586 0.671364 -0.736372 5e-06 -0.0 0.0 -0.069581 -0.034558 -0.137436 -0.149844 -0.041867 -0.191215 -0.120409 -0.030422 -0.085919 -93.19323 -65.411339 113.445229 -8.021714 -37.676975 36.043709 110.334969 -3.107106 2.459548 24.644651 8.541781 41.061768 17.636629 -26.322721 52.411182 -19.466661 -14.395596 29.410389 2e-06 -8.774822 -1e-06 16.287222 -18.135769 5.527705 -0.609776 -1.795657 -3.889329 -4.807092 -11.046813 -2.93785 -0.0 -20.976021 -1e-06 -5.01997 -25.033562 -4.031886 7e-06 -0.0 0.0 -10.634535 -5.686975 -3.565588 10.573272 -17.922955 -3.113901 2e-06 -13.821211 0.0 -0.501779 -31.181511 -4.02702 -10.52894 -60.55109 6.643641 -13.982716 -7.150203 -2.875042 13.77273 -8.401491 -3.218242 0.347732 -34.211555 0.771651 -0.963032 -17.733372 2.621018 -1e-06 -0.0 0.0 -17.346424 -20.095224 -4.201782 21.757561 -1.638372 3.866427 1e-06 -6.338826 0.0 -1.697591 -22.591753 -6.194007 -2e-06 -4e-06 -2e-06 -179.34053 -88.078171 8.19729 62.059959 -37.366653 -39.026623 140.010513 2.313344 0.879369 20.397268 8.228716 24.272167 22.182119 -20.375898 49.933334 -16.701813 -16.743525 28.476532 -0.0 -12.690601 -2e-06 15.84795 -17.368982 2.385888 -0.10592 -1.513856 -4.275883 -5.039042 -5.612873 -2.953557 3e-06 -11.020521 -2e-06 -6.111298 -15.895329 -3.840472 -0.0 -4e-06 1e-06 -10.283372 -5.68029 -4.34184 11.028294 -11.302401 -2.372632 -1.384269 -14.238583 -6.320123 -0.625438 -26.924187 -3.827604 -4.53403 -48.567707 -3.84633 -13.708527 -7.363477 -3.720941 18.141148 -14.052739 -3.242675 5e-06 -18.78727 -2e-06 -0.429712 -8.456041 2.555504 -0.0 0.0 0.0 -15.923538 -20.094482 -5.473588 30.419218 -7.190827 1.735928 1e-06 -8.162925 0.0 -1.861902 -22.861469 -6.167944 -0.0 -2e-06 -1e-06 152.173889 -22.530361 -1.843658 69.618927 -0.085921 0.454244 -67.166161 7.239311 -6.917801 -12.506691 1.629335 2.004486 -1.000002 0.0 -0.0 -4.408994 11.834215 6.972008 26.036411 0.07633 0.06543 -83.082954 0.950109 -0.504038 -7.610944 0.90884 1.678314 -1.000001 0.0 -0.0 
0.0 0.0 0.0 0.0 -0.0 0.0 1.504449 97.840927 -3.016315 79.112007 0.096073 70.544525 6.260203 3.748511 3.087636 -8.647126 0.931991 5.838763 21.254553 3.818599 9.216295 14.770737 -1.212568 2.389327 -2.96799 -0.950004 1.131761 -44.884247 1.015384 0.454137 6e-06 -0.0 0.0 -0.062126 -0.019263 -0.084842 -0.245225 -0.014715 -0.164316 -0.153065 -0.031948 -0.014207 -91.280197 -60.034817 112.565453 -18.607695 -33.215782 37.647289 117.264557 -3.468041 3.708399 23.674334 9.418945 35.677475 17.636635 -26.322733 52.411201 -19.466667 -14.395602 29.410398 0.0 -8.774824 -1e-06 16.219152 -18.40099 5.438879 -0.609777 -1.795655 -3.889327 -4.80709 -11.046813 -2.93785 4e-06 -20.976021 -1e-06 -5.019969 -25.033562 -4.031884 4e-06 0.0 2e-06 -10.634537 -5.686973 -3.565589 10.573277 -17.922958 -3.113904 2e-06 -13.821211 0.0 -0.501778 -31.181511 -4.027017 -10.139565 -60.445858 6.545022 -13.982718 -7.150201 -2.875042 13.772734 -8.401493 -3.218243 0.347736 -34.211555 0.77165 -0.963028 -17.733372 2.621019 -1e-06 -0.0 0.0 -17.346424 -20.095221 -4.201782 21.757566 -1.638376 3.866426 -0.0 -6.338828 1e-06 -1.69759 -22.591753 -6.194009 -1e-06 -3e-06 -2e-06 -104.254524 -83.198967 -66.815369 74.018219 -34.576271 -44.899948 130.727753 0.754376 0.273224 24.793297 4.648841 28.060928 22.182121 -20.375891 49.933323 -16.70182 -16.743526 28.47653 -1e-06 -12.690603 -1e-06 15.975541 -17.775061 2.24949 -0.105919 -1.513856 -4.275882 -5.039042 -5.612873 -2.953558 4e-06 -11.020523 -3e-06 -6.111299 -15.895341 -3.840472 0.0 -0.0 -1e-06 -10.283371 -5.680288 -4.341839 11.028296 -11.302407 -2.372634 -1.384268 -14.238585 -6.320124 -0.625435 -26.924194 -3.827605 -5.097862 -49.626904 -3.680707 -13.708527 -7.363476 -3.720941 18.141153 -14.052739 -3.242675 6e-06 -18.787273 -3e-06 -0.42971 -8.456043 2.555503 -1e-06 1e-06 0.0 -15.923536 -20.094492 -5.473586 30.41921 -7.190825 1.735925 3e-06 -8.162922 -0.0 -1.861899 -22.861469 -6.167946 -1e-06 -3e-06 -1e-06 152.78772 -25.912695 -2.048748 74.407303 -0.343401 0.560216 -69.784164 4.482049 -8.650764 -10.750489 1.703489 2.12058 -0.999997 0.0 0.0 -4.286197 13.04444 6.978914 25.408516 0.047777 0.006004 -80.119438 7.413682 1.275644 -8.055528 0.816815 1.612658 -1.000001 -0.0 0.0 
0.0 0.0 0.0 0.0 -0.0 0.0 1.691749 98.283745 -2.826509 79.270172 0.42498 67.639587 6.220285 3.518181 3.340173 -8.53363 0.997225 7.17228 21.381311 3.68522 10.710145 14.903799 -1.748819 2.067468 -2.970225 -1.039362 1.408375 -44.827835 1.345454 0.125505 5e-06 -0.0 0.0 -0.018961 0.022607 0.075043 -0.13888 -0.00655 0.034706 -0.035257 0.043072 0.100969 -86.41291 -57.798203 108.681526 -25.707607 -33.195148 37.041393 122.996178 -3.881445 3.206006 21.710142 11.004648 31.097185 17.636637 -26.322737 52.411205 -19.46665 -14.395597 29.410381 1e-06 -8.774822 -2e-06 16.308455 -18.934944 5.506081 -0.609778 -1.795653 -3.889326 -4.80709 -11.046809 -2.937848 3e-06 -20.976009 3e-06 -5.019972 -25.033546 -4.031878 6e-06 -1e-06 1e-06 -10.634535 -5.686969 -3.565586 10.573272 -17.922945 -3.1139 1e-06 -13.821206 2e-06 -0.501781 -31.181498 -4.027012 -10.762774 -60.037952 7.331748 -13.982715 -7.150198 -2.875041 13.772727 -8.401489 -3.21824 0.34773 -34.211544 0.77166 -0.96303 -17.733362 2.621021 -0.0 0.0 0.0 -17.346416 -20.095213 -4.201784 21.757555 -1.638374 3.86643 3e-06 -6.338824 -1e-06 -1.697594 -22.59174 -6.194002 0.0 -4e-06 -2e-06 -98.180611 -80.593018 -72.549377 83.046967 -39.423122 -50.449963 118.382317 -1.211688 -0.579356 24.009539 1.944167 28.372519 22.182114 -20.375887 49.933319 -16.701817 -16.74353 28.47653 -1e-06 -12.690601 -1e-06 16.375917 -18.033785 2.104823 -0.10592 -1.513855 -4.275882 -5.03904 -5.612871 -2.953557 4e-06 -11.02052 -1e-06 -6.111296 -15.89533 -3.840472 0.0 1e-06 -1e-06 -10.283369 -5.680287 -4.34184 11.028294 -11.302404 -2.372633 -1.384269 -14.238581 -6.320121 -0.625438 -26.924191 -3.827604 -5.841889 -51.185509 -2.92351 -13.708525 -7.363473 -3.720939 18.14115 -14.052739 -3.242677 6e-06 -18.787271 -4e-06 -0.429711 -8.456042 2.555502 -0.0 0.0 1e-06 -15.923532 -20.094482 -5.473587 30.41921 -7.190823 1.735926 1e-06 -8.162924 0.0 -1.8619 -22.861469 -6.167944 1e-06 -3e-06 -1e-06 157.283875 -24.817772 -4.564556 71.647026 -0.60996 0.814154 -70.865852 3.988372 -10.328848 -10.727981 1.772262 2.209095 -1.0 -0.0 0.0 -3.606061 12.063025 6.277347 25.156775 0.037395 -0.019893 -78.141472 10.272277 1.847352 -8.457716 0.692454 1.569996 -1.000001 0.0 -0.0 
0.0 0.0 0.0 0.0 -0.0 0.0 1.872406 98.827744 -2.329213 80.765747 1.095325 68.827797 5.865414 3.087638 3.136803 -8.442036 0.935958 7.651475 20.917339 3.163043 10.279141 15.14111 -2.224671 1.785542 -2.851489 -1.068967 1.124147 -45.138012 1.571839 -1.321243 5e-06 0.0 0.0 0.053798 0.084318 0.253846 -0.066509 0.011504 0.233599 0.005241 0.1513 0.260145 -83.872658 -58.644997 105.971863 -26.153549 -35.737778 34.677444 129.065002 -4.212399 2.075785 22.79348 11.868542 27.920029 17.636627 -26.322725 52.411186 -19.46666 -14.3956 29.410389 1e-06 -8.774823 -1e-06 16.372601 -18.917091 5.093823 -0.609776 -1.795653 -3.889326 -4.80709 -11.046811 -2.937851 4e-06 -20.976015 -2e-06 -5.01997 -25.033554 -4.031882 6e-06 -0.0 -1e-06 -10.634535 -5.686969 -3.565586 10.573274 -17.922951 -3.113902 2e-06 -13.821209 -0.0 -0.501778 -31.181498 -4.027013 -10.830671 -58.964497 7.010009 -13.982716 -7.150199 -2.875043 13.772731 -8.401491 -3.218243 0.347736 -34.211544 0.771651 -0.963027 -17.733366 2.621017 0.0 -0.0 0.0 -17.34642 -20.095219 -4.201783 21.757557 -1.638373 3.866428 2e-06 -6.338823 -0.0 -1.697589 -22.591738 -6.194006 -2e-06 -7e-06 -1e-06 -84.950172 -81.422333 -84.1371 86.121803 -48.107609 -51.813522 109.437386 -1.512065 -1.866596 19.858543 0.129562 28.922792 22.182112 -20.375889 49.933323 -16.701817 -16.74353 28.476534 -4e-06 -12.690603 -1e-06 16.53952 -17.936285 2.515812 -0.105918 -1.513857 -4.27588 -5.039042 -5.612871 -2.953557 6e-06 -11.020521 -3e-06 -6.111298 -15.89533 -3.840473 -0.0 0.0 1e-06 -10.283372 -5.680291 -4.341838 11.028294 -11.302404 -2.372632 -1.384269 -14.238582 -6.320124 -0.625438 -26.924187 -3.827603 -5.89168 -51.040779 -2.549203 -13.708527 -7.363477 -3.720938 18.141153 -14.052739 -3.242676 8e-06 -18.787266 -4e-06 -0.429711 -8.456044 2.555503 0.0 2e-06 -0.0 -15.923539 -20.094486 -5.473586 30.419214 -7.190823 1.735927 1e-06 -8.162927 1e-06 -1.861902 -22.861467 -6.167945 -1e-06 -3e-06 -2e-06 163.116959 -20.526913 -8.317994 62.251648 -0.700295 0.992899 -71.026794 3.405008 -11.264464 -12.714883 1.804862 2.196467 -0.999999 0.0 -0.0 -4.158782 9.937668 4.649665 26.906862 0.001143 -0.162594 -76.869286 10.615095 0.783708 -8.998261 0.652993 1.552985 -1.000002 0.0 0.0 
